<svg xmlns="http://www.w3.org/2000/svg" xml:space="preserve" width="192" height="192" data-version="2">
    <path fill="#8abe53" d="M73.19 135.7q4.92 0 6.92-2.79 1.99-2.8 1.99-6.25V65.74q0-3.32-1.99-6.12-2-2.79-6.92-2.79H42.07l-.13 86.72q0 2.92-2.27 4.65-2.26 1.73-5.58 1.73-7.85 0-7.85-6.38V51.38q0-4.79 2.46-6.39 2.46-1.59 5.92-1.59h41.9q3.45 0 7.18 1.46 3.72 1.46 7.18 3.72h-.13q3.45 2.53 5.32 6.59 1.86 4.05 1.86 9.38v63.17q0 10.77-7.18 16.09-3.46 2.53-7.12 3.93-3.66 1.39-7.11 1.39H54.17q-2.26 0-3.52-1.86-1.27-1.86-1.27-4.92 0-6.65 5.72-6.65Z" paint-order="stroke"/>
    <rect width="71.69" height="106.53" x="-35.845" y="-53.265" fill="none" rx="0" ry="0" transform="translate(62.585 97.165)"/>
    <path fill="#8abe53" d="M135.83 149.67q-2.66 0-5.65-.87-2.99-.86-4.32-3.26-3.06-10.37-6.39-21.28-3.32-10.9-6.65-21.41-3.72-12.37-7.98-25.74-4.25-13.36-7.98-25.6-.79-2.93.94-5.12 1.72-2.19 4.92-3.26 1.99-.53 3.45-.53 4.53 0 5.86 4.52l9.84 31.52q1.33 4.79 3.12 10.51 1.8 5.72 3.66 11.7 1.86 5.99 3.73 11.91 1.86 5.92 3.45 10.97 2.53-8.38 5.52-18.15 3-9.78 6.12-19.89 3.13-10.11 6.19-20.01 3.05-9.91 5.71-18.56 1.47-4.52 5.72-4.52 1.6 0 3.73.53 7.31 2 5.72 8.38l-14.5 46.95q-7.32 23.67-14.5 47.08-1.06 2.66-3.92 3.39-2.86.74-5.79.74" paint-order="stroke"/>
    <rect width="79.039" height="107.07" x="-39.52" y="-53.535" fill="none" rx="0" ry="0" transform="translate(136.371 96.635)"/>
</svg>
