<svg xmlns="http://www.w3.org/2000/svg" version="1.1" xmlns:xlink="http://www.w3.org/1999/xlink"
  width="200" height="58" viewBox="0 0 200 58">
  <svg xml:space="preserve" width="200" height="58" data-version="2"
    data-id="lg_PCQoR8ggza6fAPp3R4" viewBox="0 0 562 58" x="0" y="0"><rect width="100%" height="100%" fill="transparent"></rect><path fill="#8abe53" d="M29.79 48.855q2.55 0 3.59-1.45 1.03-1.45 1.03-3.24v-31.6q0-1.73-1.03-3.18-1.04-1.45-3.59-1.45H13.64l-.06 44.99q0 1.52-1.18 2.42-1.17.89-2.9.89-4.07 0-4.07-3.31V5.105q0-2.48 1.28-3.31 1.28-.83 3.07-.83h21.74q1.79 0 3.72.76 1.93.76 3.73 1.94h-.07q1.79 1.31 2.76 3.41.96 2.11.96 4.87v32.77q0 5.59-3.72 8.35-1.8 1.31-3.69 2.03-1.9.73-3.69.73h-11.6q-1.17 0-1.82-.97-.66-.96-.66-2.55 0-3.45 2.97-3.45Z"></path><rect width="37.19" height="55.27" x="-18.59" y="-27.64" fill="none" rx="0" ry="0" transform="translate(24.52 29.1)"></rect><path fill="#8abe53" d="M79.19 24.225q1.8 0 3.73.76t3.73 2h-.07q1.79 1.24 2.76 3.38.96 2.14.96 4.9v9.45q0 5.59-3.72 8.35-1.8 1.31-3.69 2.03-1.9.73-3.7.73H64.15q-1.79 0-3.69-.73-1.9-.72-3.69-2.03-3.73-2.76-3.73-8.35v-4.55q0-3.25 4.07-3.25 4.14 0 4.14 3.25v4q0 1.79 1.04 3.24 1.03 1.45 3.59 1.45h11.59q2.55 0 3.59-1.45 1.03-1.45 1.03-3.24v-8.35q0-1.73-1.03-3.21-1.04-1.48-3.59-1.48H64.15q-3.59 0-7.38-2.62-3.73-2.9-3.73-8.35v-8.21q0-2.76.97-4.87.97-2.1 2.76-3.41h-.07q1.79-1.18 3.73-1.94 1.93-.76 3.72-.76h15.04q1.8 0 3.73.76t3.73 1.94h-.07q1.79 1.31 2.76 3.41.96 2.11.96 4.87v4.07q0 3.24-4.14 3.24-4.07 0-4.07-3.24v-3.45q0-1.73-1.03-3.18-1.04-1.45-3.59-1.45H65.88q-2.56 0-3.59 1.45-1.04 1.45-1.04 3.18v7.03q0 1.8 1.04 3.21 1.03 1.42 3.59 1.42Z"></path><rect width="37.26" height="54.86" x="-18.63" y="-27.43" fill="none" rx="0" ry="0" transform="translate(72.17 28.9)"></rect><path fill="#8abe53" d="m119.28 7.735-15.11 46.36v-.06q-.41 1.03-1.14 1.69-.72.65-1.76.65-.55 0-1.06-.1-.52-.11-1.07-.24h.06q-3.93-1.25-2.89-4.42l15.73-47.82q.34-1.1 1.21-1.86.86-.76 2.03-.9 1.17-.2 2.28-.31 1.1-.1 1.72-.1.62 0 1.73.1 1.1.11 2.28.24.96.14 1.89 1.04.93.9 1.42 1.79 3.86 11.87 7.83 23.91 3.97 12.04 7.83 23.91.97 3.17-2.9 4.42-.55.13-1 .24-.45.1-1 .1-.96 0-1.76-.65-.79-.66-1.14-1.69v.06Zm5.18 31.46q0 2.21-1.55 3.76-1.56 1.55-3.76 1.55-2.21 0-3.73-1.55t-1.52-3.76q0-2.21 1.52-3.76 1.52-1.55 3.73-1.55 2.2 0 3.76 1.55 1.55 1.55 1.55 3.76"></path><rect width="47.08" height="55.75" x="-23.54" y="-27.88" fill="none" rx="0" ry="0" transform="translate(119.76 29)"></rect><path fill="#8abe53" d="M185.39 56.105q-1.38 0-2.94-.45-1.55-.45-2.24-1.69-1.59-5.39-3.31-11.04-1.73-5.66-3.45-11.11-1.93-6.42-4.14-13.35-2.21-6.94-4.14-13.29-.42-1.51.48-2.65.9-1.14 2.55-1.69 1.04-.28 1.8-.28 2.34 0 3.03 2.35l5.11 16.35q.69 2.48 1.62 5.45l1.9 6.07q.97 3.11 1.93 6.18.97 3.07 1.8 5.69 1.31-4.35 2.86-9.42 1.55-5.07 3.17-10.31 1.62-5.25 3.21-10.39 1.59-5.14 2.97-9.62.76-2.35 2.97-2.35.82 0 1.93.28 3.79 1.03 2.96 4.34-3.72 12.08-7.52 24.36-3.79 12.28-7.52 24.43-.55 1.38-2.03 1.76-1.49.38-3 .38"></path><rect width="41.01" height="55.55" x="-20.5" y="-27.77" fill="none" rx="0" ry="0" transform="translate(185.9 28.83)"></rect><path fill="#8abe53" d="M220.51 52.855q0 3.31-4.14 3.31-4.07 0-4.07-3.31V3.935q0-3.31 4.07-3.31 4.14 0 4.14 3.31Z"></path><rect width="8.21" height="55.54" x="-4.11" y="-27.77" fill="none" rx="0" ry="0" transform="translate(216.9 28.9)"></rect><path fill="#8abe53" d="M257.7 24.225q1.79 0 3.72.76 1.94.76 3.73 2h-.07q1.79 1.24 2.76 3.38.97 2.14.97 4.9v9.45q0 5.59-3.73 8.35-1.79 1.31-3.69 2.03-1.9.73-3.69.73h-15.04q-1.8 0-3.7-.73-1.89-.72-3.69-2.03-3.72-2.76-3.72-8.35v-4.55q0-3.25 4.07-3.25 4.14 0 4.14 3.25v4q0 1.79 1.03 3.24 1.04 1.45 3.59 1.45h11.59q2.56 0 3.59-1.45 1.04-1.45 1.04-3.24v-8.35q0-1.73-1.04-3.21-1.03-1.48-3.59-1.48h-13.31q-3.59 0-7.39-2.62-3.72-2.9-3.72-8.35v-8.21q0-2.76.96-4.87.97-2.1 2.76-3.41h-.07q1.8-1.18 3.73-1.94t3.73-.76h15.04q1.79 0 3.72.76 1.94.76 3.73 1.94h-.07q1.79 1.31 2.76 3.41.97 2.11.97 4.87v4.07q0 3.24-4.14 3.24-4.07 0-4.07-3.24v-3.45q0-1.73-1.04-3.18-1.03-1.45-3.59-1.45h-11.59q-2.55 0-3.59 1.45-1.03 1.45-1.03 3.18v7.03q0 1.8 1.03 3.21 1.04 1.42 3.59 1.42Z"></path><rect width="37.26" height="54.86" x="-18.63" y="-27.43" fill="none" rx="0" ry="0" transform="translate(250.68 28.9)"></rect><path fill="#8abe53" d="M316.83 44.715q0 5.59-3.73 8.35-1.79 1.31-3.69 2.03-1.89.73-3.69.73h-15.04q-1.79 0-3.69-.73-1.9-.72-3.69-2.03-1.8-1.38-2.76-3.42-.97-2.03-.97-4.93V3.935q0-3.31 4.07-3.31 4.14 0 4.14 3.31v40.23q0 1.79 1.04 3.24 1.03 1.45 3.58 1.45H304q2.55 0 3.58-1.45 1.04-1.45 1.04-3.24V3.935q0-3.31 4.07-3.31 4.14 0 4.14 3.31Z"></path><rect width="37.26" height="55.2" x="-18.63" y="-27.6" fill="none" rx="0" ry="0" transform="translate(298.7 28.73)"></rect><path fill="#8abe53" d="m345.53 7.735-15.11 46.36v-.06q-.41 1.03-1.13 1.69-.73.65-1.76.65-.56 0-1.07-.1-.52-.11-1.07-.24h.07q-3.94-1.25-2.9-4.42l15.73-47.82q.34-1.1 1.21-1.86.86-.76 2.03-.9 1.18-.2 2.28-.31 1.1-.1 1.72-.1.63 0 1.73.1 1.1.11 2.28.24.96.14 1.89 1.04.94.9 1.42 1.79 3.86 11.87 7.83 23.91 3.97 12.04 7.83 23.91.97 3.17-2.9 4.42-.55.13-1 .24-.45.1-1 .1-.96 0-1.76-.65-.79-.66-1.14-1.69v.06Zm5.18 31.46q0 2.21-1.55 3.76-1.56 1.55-3.76 1.55-2.21 0-3.73-1.55t-1.52-3.76q0-2.21 1.52-3.76 1.52-1.55 3.73-1.55 2.2 0 3.76 1.55 1.55 1.55 1.55 3.76"></path><rect width="47.08" height="55.75" x="-23.54" y="-27.88" fill="none" rx="0" ry="0" transform="translate(346.01 29)"></rect><path fill="#8abe53" d="M379.07 55.825q-2.55 0-3.45-1.31-.9-1.31-.9-2.9V3.935q0-3.31 4-3.31 4.14 0 4.14 3.31v44.92h23.05q2.48 0 2.48 3.38.14 3.59-2.48 3.59Z"></path><rect width="33.72" height="55.2" x="-16.86" y="-27.6" fill="none" rx="0" ry="0" transform="translate(392.08 28.73)"></rect><path fill="#8abe53" d="M423.23 52.855q0 3.31-4.14 3.31-4.07 0-4.07-3.31V3.935q0-3.31 4.07-3.31 4.14 0 4.14 3.31Z"></path><rect width="8.21" height="55.54" x="-4.11" y="-27.77" fill="none" rx="0" ry="0" transform="translate(419.63 28.9)"></rect><path fill="#8abe53" d="M433.51 7.935q-2.42 0-2.55-3.52 0-3.45 2.55-3.45h30.29q2.28 0 3.52.73 1.24.72 1.38 1.97.07 1.17-.03 2.24-.11 1.07-.52 1.62l-27.19 41.33h24.98q2.55 0 2.55 3.38.14 3.59-2.55 3.59h-30.91q-4.56 0-4.9-2.76-.14-1.17 0-2.17t.55-1.56q1.24-1.93 2.59-4 1.34-2.07 3-4.55 1.66-2.49 3.69-5.59 2.04-3.11 4.66-7.07l5.9-8.94q3.28-4.97 7.42-11.25Z"></path><rect width="38.72" height="54.86" x="-19.36" y="-27.43" fill="none" rx="0" ry="0" transform="translate(449.89 28.9)"></rect><path fill="#8abe53" d="M480.15 55.825q-2.55 0-3.45-1.31-.89-1.31-.89-2.9V5.105q0-1.58.89-2.86.9-1.28 3.45-1.28h24.02q2.55 0 2.69 3.45.13 3.52-2.69 3.52h-20.22v40.92h21.46q2.55 0 2.62 3.38.14 3.59-2.62 3.59Zm21.46-28.57q0 2.42-1.69 4.07-1.69 1.66-4.1 1.66-2.35 0-4.01-1.66-1.65-1.65-1.65-4.07 0-2.41 1.65-4.07 1.66-1.65 4.01-1.65 2.41 0 4.1 1.65 1.69 1.66 1.69 4.07"></path><rect width="32.27" height="54.86" x="-16.13" y="-27.43" fill="none" rx="0" ry="0" transform="translate(492.44 28.9)"></rect><path fill="#8abe53" d="M535.01 33.055h-5.31q-1.18 0-1.83-.93-.66-.93-.66-2.52 0-3.52 2.9-3.52h8.07q2.56 0 3.59-1.45 1.04-1.45 1.04-3.17v-8.9q0-1.73-1.04-3.18-1.03-1.45-3.59-1.45h-14.56v44.99q0 3.31-4.07 3.31t-4.07-3.31V5.105q0-2.48 1.28-3.31 1.27-.83 3.07-.83h20.08q1.79 0 3.72.76 1.94.76 3.73 1.94h-.07q1.79 1.31 2.76 3.41.97 2.11.97 4.87v10.07q0 5.59-3.73 8.35-.76.55-1.62 1.03-.86.49-1.76.97l11.04 18.22q.21.34.41.89.21.55.21.9 0 1.66-2.35 3.17v-.07q-1.58.97-2.69.97-1.58 0-2.55-1.59l.07.07Z"></path><rect width="40.09" height="55.48" x="-20.05" y="-27.74" fill="none" rx="0" ry="0" transform="translate(536.02 29.2)"></rect></svg>
</svg>